<svg width="16" height="16" viewBox="0 0 16 16" fill="none" xmlns="http://www.w3.org/2000/svg">
<path d="M4.00957 14.3248C4.02557 14.7024 4.33597 15 4.71357 15H11.2912C11.6688 15 11.9808 14.7024 11.9952 14.3248L12.4656 4.408H3.53917L4.00957 14.3248ZM9.48957 6.872C9.48957 6.7136 9.61757 6.5856 9.77597 6.5856H10.2336C10.392 6.5856 10.52 6.7152 10.52 6.872V12.5376C10.52 12.696 10.3904 12.824 10.2336 12.824H9.77597C9.61757 12.824 9.48957 12.696 9.48957 12.5376V6.872ZM7.48797 6.872C7.48797 6.7136 7.61597 6.5856 7.77437 6.5856H8.23197C8.39037 6.5856 8.51837 6.7152 8.51837 6.872V12.5376C8.51837 12.696 8.39037 12.824 8.23197 12.824H7.77437C7.61597 12.824 7.48797 12.696 7.48797 12.5376V6.872ZM5.48477 6.872C5.48477 6.7136 5.61277 6.5856 5.76957 6.5856H6.22717C6.38557 6.5856 6.51357 6.7152 6.51357 6.872V12.5376C6.51357 12.696 6.38397 12.824 6.22717 12.824H5.76957C5.61117 12.824 5.48477 12.696 5.48477 12.5376V6.872ZM12.7776 1.7216H9.74397V1.1472C9.74397 1.0656 9.67837 1 9.59677 1H6.40957C6.32797 1 6.26237 1.0656 6.26237 1.1472V1.7216H3.22717C2.98397 1.7216 2.78557 1.9184 2.78557 2.1632V3.552H13.2192V2.1632C13.2192 1.92 13.0224 1.7216 12.7776 1.7216Z" fill="#FF6760"/>
</svg>
