<svg width="16" height="16" viewBox="0 0 16 16" fill="none" xmlns="http://www.w3.org/2000/svg">
<path d="M15.6465 6.74404C15.0801 6.29764 14.0225 6.67844 13.1985 7.59364C12.4289 7.37924 11.7457 7.43204 11.1633 7.76004C10.0481 8.38884 9.62567 9.83524 9.46887 10.9344C9.44487 11.104 9.42247 11.2768 9.39847 11.4496C9.14887 13.352 8.91207 15.1504 6.65607 15.1504C6.61927 15.1504 6.58247 15.1504 6.54407 15.1488C5.90407 15.1328 5.44327 14.9344 5.13607 14.5408C4.56967 13.8144 4.66727 12.6272 4.73927 12.1344C4.96327 12.0336 5.12167 11.8128 5.12967 11.552L5.16327 10.5776L6.35847 10.2224C6.50727 10.1776 6.62247 10.0832 6.70567 9.96644C6.92007 10.0144 7.18727 10.0032 7.37607 9.88484C7.70727 9.67844 8.19047 9.28164 8.79207 8.53124C9.44967 7.71044 9.61127 7.04964 9.62727 6.62084C9.63527 6.31524 9.42247 6.00484 9.26407 5.91844C9.10567 5.83204 9.07687 5.99364 9.10727 6.29764C9.15207 6.75524 9.08007 7.45124 8.48967 8.20804C8.47847 8.22084 8.46887 8.23044 8.45927 8.24324L8.46407 8.20964C8.60487 7.99204 8.72647 7.76324 8.81927 7.51844C9.77927 4.97604 7.70407 2.00964 7.61447 1.88484C7.59527 1.85764 7.56967 1.84004 7.54407 1.81924C7.60327 1.68324 7.58887 1.56004 7.48967 1.49604C7.33447 1.39524 7.09127 1.09284 6.95047 0.820839L6.70087 0.344039C6.56167 0.0736392 6.26727 0.0256392 6.04647 0.236839L5.42727 0.838439C5.20487 1.04964 5.24807 1.33604 5.51847 1.47844L5.95527 1.70244C6.22567 1.84484 6.52167 2.10084 6.61767 2.27524C6.68967 2.40484 6.85607 2.42404 7.02727 2.33604C7.20327 2.59204 8.91207 5.18564 8.12807 7.26084C8.09607 7.34564 8.04647 7.42404 8.00487 7.50564L8.00007 7.50724C7.95207 7.49604 7.90567 7.47844 7.85607 7.47844C7.73287 7.47844 7.61767 7.51524 7.52167 7.57604L7.66727 7.71524C7.57927 7.82244 7.52007 7.95364 7.52007 8.10244C7.52007 8.13924 7.52807 8.17444 7.53447 8.20964C7.25927 8.51044 6.91527 8.77924 6.49927 9.00804C6.34567 8.92164 6.16007 8.89444 5.97927 8.94884L4.52327 9.38084L2.96487 8.88804C2.78727 8.83204 2.60167 8.85604 2.44967 8.93924C1.70727 8.49924 1.20167 7.93764 0.944071 7.26084C0.123272 5.08644 2.04167 2.34084 2.06087 2.31364C2.06247 2.30884 2.06247 2.30404 2.06727 2.29924C2.06727 2.29924 2.11207 2.34244 2.16807 2.39204C2.22407 2.44484 2.34567 2.34564 2.44167 2.17124C2.53607 1.99524 2.83527 1.73924 3.10567 1.59844L3.54087 1.37284C3.81287 1.23204 3.85447 0.945639 3.63367 0.732839L3.01287 0.132839C2.79207 -0.0799608 2.50087 -0.0319608 2.35847 0.240039L2.11047 0.716839C1.96807 0.988839 1.72647 1.28964 1.57127 1.39204C1.41287 1.49124 1.34407 1.62724 1.41287 1.69124L1.53927 1.80964C1.50887 1.83044 1.48167 1.85284 1.45767 1.88484C1.36807 2.00964 -0.707128 4.97604 0.252872 7.51844C0.576072 8.36964 1.19687 9.06244 2.10567 9.59044C2.12967 9.84484 2.30407 10.072 2.56327 10.1552L3.83527 10.5568L3.80167 11.5056C3.79687 11.7024 3.87847 11.8816 4.00967 12.0096C3.92167 12.5968 3.80487 14.0336 4.55207 14.992C4.99847 15.5648 5.66247 15.8656 6.52647 15.8864C6.57287 15.8896 6.61767 15.8896 6.66247 15.8896C9.56007 15.8896 9.87687 13.4848 10.1313 11.5472C10.1537 11.3776 10.1761 11.208 10.2001 11.04C10.3889 9.71684 10.8593 8.78084 11.5265 8.40484C11.8609 8.21444 12.2625 8.16164 12.7201 8.24164C12.1457 9.19044 12.0737 10.1808 12.5969 10.5968C13.2033 11.0768 14.3777 10.6032 15.2193 9.53924C16.0609 8.47524 16.2513 7.22404 15.6465 6.74404ZM8.35367 8.36964C8.30407 8.42884 8.25447 8.49284 8.20647 8.54724C8.25447 8.48644 8.30247 8.42564 8.34727 8.36324L8.35367 8.36964ZM14.1377 8.65924C13.8225 9.05924 13.3825 9.23684 13.1553 9.05604C12.9889 8.92484 12.9841 8.63844 13.1153 8.33764C13.2353 8.37604 13.3569 8.41764 13.4817 8.47044C13.6721 8.55044 13.8865 8.46404 13.9665 8.27524C14.0465 8.08804 13.9585 7.87044 13.7697 7.79044C13.7137 7.76644 13.6609 7.74884 13.6049 7.72964C13.8625 7.54084 14.1329 7.48324 14.2945 7.61284C14.5233 7.79364 14.4513 8.26244 14.1377 8.65924Z" fill="#336CFB"/>
</svg>
