<svg width="40" height="40" viewBox="0 0 40 40" fill="none" xmlns="http://www.w3.org/2000/svg">
<g clip-path="url(#clip0_0_4134)">
<path d="M21.7759 16.7639V17.4879C21.7759 21.7719 21.7719 26.0599 21.7879 30.3479C21.7879 30.7639 21.6679 30.8599 21.2719 30.8519C19.9999 30.8279 18.7319 30.8399 17.4599 30.8479C17.3119 30.8479 17.0959 30.7639 17.0799 31.0439C17.0639 31.3479 17.2959 31.2839 17.4639 31.2839L21.3679 31.2879C21.4959 31.2879 21.7039 31.2239 21.7319 31.3759C21.7719 31.5879 21.5359 31.5559 21.4039 31.5919L17.4719 32.6639C17.3839 32.6879 17.2919 32.6999 17.2079 32.7359C17.0399 32.8039 17.0599 32.9559 17.0879 33.0879C17.1199 33.2639 17.2719 33.1919 17.3439 33.1559C18.0639 32.7919 18.6999 33.0999 19.3519 33.3679C20.0559 33.6599 20.7679 33.9359 21.4839 34.1999C21.7079 34.2839 21.8079 34.4039 21.7719 34.6399C21.7319 34.9159 21.5159 34.8039 21.3759 34.8079C20.0759 34.8159 18.7759 34.8119 17.4719 34.8159C17.3119 34.8159 17.0839 34.7279 17.0719 35.0399C17.0599 35.3559 17.2919 35.2719 17.4559 35.2719C17.9719 35.2799 18.4879 35.2759 19.0359 35.3599C18.4759 35.6839 17.9239 36.0159 17.3559 36.3239C17.0879 36.4679 17.0039 36.6399 17.1399 36.9719C17.8079 36.5919 18.4999 36.2599 19.1159 35.8239C19.8399 35.3119 20.6159 35.2079 21.4559 35.2639C21.6879 35.2799 21.7679 35.3319 21.7799 35.5759C21.8279 36.6639 21.8359 36.6719 20.7879 36.8759C19.7079 37.0839 18.6279 37.2759 17.5439 37.4759C17.2959 37.5239 17.0719 37.5359 17.0239 37.9039C16.8639 39.1719 15.7999 40.0599 14.5959 39.9879C13.2839 39.9039 12.3359 38.9119 12.3319 37.5679C12.3199 34.9799 12.3319 32.3919 12.3319 29.8079C12.3319 29.1479 12.3279 28.4919 12.3359 27.8319C12.3399 27.6279 12.2879 27.5559 12.0679 27.5079C10.6079 27.1799 9.97192 26.3399 9.97192 24.8359C9.97592 21.2679 9.97192 17.7039 9.97192 14.1359C9.97192 13.7519 9.97192 13.3679 10.0759 12.9959C10.3599 11.9879 11.2559 11.2999 12.3199 11.2879C13.6799 11.2759 15.0439 11.2959 16.4079 11.2719C16.7719 11.2679 16.8279 11.3959 16.8239 11.7199C16.8119 15.9759 16.8159 20.2319 16.8199 24.4879C16.8199 24.6239 16.8199 24.7639 16.8239 24.8999C16.8279 25.0399 16.8999 25.1399 17.0439 25.1399C17.1839 25.1399 17.2639 25.0399 17.2759 24.9039C17.2879 24.7679 17.2839 24.6279 17.2839 24.4919C17.2839 20.2519 17.2919 16.0119 17.2719 11.7719C17.2719 11.3519 17.3919 11.2719 17.7799 11.2799C19.0799 11.3039 20.3799 11.2959 21.6839 11.2839C22.3119 11.2799 22.8479 11.4919 23.3239 11.8839C24.7439 13.0479 26.1599 14.2159 27.5919 15.3679C28.2599 15.9039 28.5959 16.5839 28.5759 17.4359C28.5759 17.5439 28.5719 17.6519 28.5719 17.7559C28.5759 18.0759 28.4719 18.4599 28.6119 18.7039C28.7759 18.9879 29.1959 18.7799 29.4999 18.8199C29.7919 18.8559 29.9679 18.9919 29.9679 19.2799C29.9719 20.9319 30.0559 22.5879 29.9279 24.2359C29.8679 25.0359 29.4319 25.7399 28.9759 26.3959C28.3839 27.2519 27.7719 28.0919 27.1559 28.9319C26.8279 29.3799 26.6839 29.8519 26.6879 30.4239C26.7119 33.3319 26.6959 36.2399 26.6959 39.1479C26.6959 39.2839 26.7039 39.4239 26.6799 39.5599C26.6319 39.8399 26.4559 40.0039 26.1719 39.9799C25.9119 39.9599 25.7519 39.7919 25.7399 39.5319C25.7239 39.2559 25.7319 38.9799 25.7319 38.7039C25.7319 35.9479 25.7199 33.1919 25.7479 30.4359C25.7519 29.8639 25.6039 29.3919 25.2759 28.9439C24.6719 28.1159 24.0639 27.2919 23.4839 26.4439C23.0159 25.7599 22.6159 25.0399 22.4839 24.1999C22.4559 24.0199 22.4319 23.8359 22.4279 23.6519C22.4239 22.2759 22.4239 20.8959 22.4279 19.5199C22.4279 18.9479 22.5639 18.8159 23.1239 18.8119C23.2159 18.8119 23.3119 18.8239 23.3999 18.8079C23.5479 18.7759 23.7599 18.9199 23.8319 18.6799C23.8879 18.4839 23.7919 18.3359 23.6279 18.2119C23.0479 17.7679 22.4639 17.2999 21.7759 16.7639ZM26.2239 28.6159C26.9279 27.5879 27.6999 26.6799 28.3239 25.6639C28.6679 25.0999 29.0119 24.5159 29.0319 23.8479C29.0719 22.5799 29.0439 21.3079 29.0479 20.0399C29.0479 19.8559 29.0039 19.7559 28.7919 19.7639C28.5879 19.7679 28.5799 19.8919 28.5799 20.0399V20.7759C28.5799 21.5719 28.5959 22.3679 28.5759 23.1599C28.5399 24.3959 27.4999 25.3999 26.2559 25.4319C25.0599 25.4599 23.9719 24.5279 23.8999 23.3199C23.8359 22.2679 23.8719 21.2119 23.8599 20.1559C23.8599 19.9799 23.9119 19.7599 23.6119 19.7759C23.3319 19.7919 23.4239 20.0119 23.4239 20.1559C23.4159 21.3479 23.4239 22.5439 23.4199 23.7319C23.4199 24.1239 23.5239 24.4879 23.6839 24.8359C24.3239 26.2239 25.3599 27.3359 26.2239 28.6159ZM17.0599 -9.26175e-05C19.6719 0.0159074 21.7959 2.15191 21.7719 4.74791C21.7519 7.32791 19.6159 9.44391 17.0439 9.43991C14.4119 9.43591 12.3159 7.27991 12.3359 4.59591C12.3559 2.09191 14.5239 -0.0160926 17.0599 -9.26175e-05ZM18.9159 39.9039C19.4919 39.0839 20.0399 38.2639 20.6399 37.4839C20.8759 37.1759 21.3079 37.2519 21.6599 37.2079C21.7799 37.1919 21.7599 37.3279 21.7719 37.4159C21.9599 38.9439 20.4399 40.2959 18.9159 39.9039ZM20.0639 37.4799C19.5199 38.2599 19.0359 38.9399 18.5599 39.6279C18.4519 39.7839 18.3519 39.7559 18.2159 39.6759C17.6759 39.3599 17.3399 38.8919 17.1359 38.3079C17.0519 38.0759 17.1679 38.0079 17.3599 37.9719C18.2279 37.8159 19.0919 37.6559 20.0639 37.4799ZM18.9519 32.7279C19.8879 32.4759 20.7079 32.2599 21.5279 32.0279C21.7239 31.9719 21.7759 32.0399 21.7719 32.2199C21.7679 32.6759 21.7719 33.1359 21.7719 33.5919C21.7719 33.7519 21.7199 33.8159 21.5519 33.7519C20.7279 33.4239 19.8959 33.0959 18.9519 32.7279Z" fill="#558EFF"/>
</g>
<defs>
<clipPath id="clip0_0_4134">
<rect width="40" height="40" fill="white"/>
</clipPath>
</defs>
</svg>
